Coordinates
version=1
nRows=9
nColumns=63
inDegrees=yes

Units are S.I. units (second, meters, Newtons, ...)
If the header above contains a line with 'inDegrees', this indicates whether rotational values are in degrees (yes) or radians (no).

endheader
time	pelvis_tilt	pelvis_list	pelvis_rotation	pelvis_tx	pelvis_ty	pelvis_tz	hip_flexion_r	hip_adduction_r	hip_rotation_r	knee_angle_r	knee_angle_r_beta	ankle_angle_r	subtalar_angle_r	mtp_angle_r	hip_flexion_l	hip_adduction_l	hip_rotation_l	knee_angle_l	knee_angle_l_beta	ankle_angle_l	subtalar_angle_l	mtp_angle_l	L5_S1_Flex_Ext	L5_S1_Lat_Bending	L5_S1_axial_rotation	L4_L5_Flex_Ext	L4_L5_Lat_Bending	L4_L5_axial_rotation	L3_L4_Flex_Ext	L3_L4_Lat_Bending	L3_L4_axial_rotation	L2_L3_Flex_Ext	L2_L3_Lat_Bending	L2_L3_axial_rotation	L1_L2_Flex_Ext	L1_L2_Lat_Bending	L1_L2_axial_rotation	L1_T12_Flex_Ext	L1_T12_Lat_Bending	L1_T12_axial_rotation	Abs_r3	Abs_r2	Abs_r1	Abs_t1	Abs_t2	neck_flexion	neck_bending	neck_rotation	arm_flex_r	arm_add_r	arm_rot_r	elbow_flex_r	pro_sup_r	wrist_flex_r	wrist_dev_r	arm_flex_l	arm_add_l	arm_rot_l	elbow_flex_l	pro_sup_l	wrist_flex_l	wrist_dev_l
     13.38983051	      6.12995139	     10.14183980	     86.54830193	      0.20174793	      0.81132828	      0.86389697	    -11.34869580	      7.14285107	     10.29918502	     14.02479688	      0.24477888	     38.32841470	      2.95346239	      0.00000000	    -14.91950427	     -4.06265330	     10.47717917	      7.64796827	      0.13348223	     40.02245920	    -14.46464628	      0.00000000	     -1.08404738	      0.45555657	      6.16600051	     -2.01318440	      0.60589024	      6.55137555	     -1.78098145	      1.10764025	      6.55137555	     -1.23895776	      1.10764025	      5.39525045	     -1.00664640	      0.92897097	      5.00987542	     -0.61942468	      0.70565713	      4.62450038	     -7.74324206	      5.15334707	     34.29344505	      0.00000000	      0.00000000	      6.93754053	     10.30042094	    -41.69060523	      5.49597116	    -24.80938353	    -38.67334962	    136.86651099	     73.90145266	     -9.48147489	    -14.58844795	     80.99258908	     49.87316344	    177.58686193	      0.05087466	      0.92929212	    -69.88710676	    -24.66142240
     13.40677966	      6.34338442	     10.06235825	     86.32822297	      0.20182027	      0.81132786	      0.86388110	    -11.18727047	      7.44631198	     11.36400299	     14.15962000	      0.24713199	     38.21069514	      1.84509779	      0.00000000	    -14.76006025	     -4.21915625	      9.53159975	      7.99511499	      0.13954108	     40.41388690	    -13.40330945	      0.00000000	     -1.06815282	      0.48095945	      6.30392180	     -1.98366660	      0.63967607	      6.69791692	     -1.75486826	      1.16940480	      6.69791692	     -1.22079186	      1.16940480	      5.51593158	     -0.99188671	      0.98077251	      5.12193647	     -0.61034252	      0.74500619	      4.72794135	     -7.62970876	      5.44070947	     35.06052190	      0.00000000	      0.00000000	      7.21458061	     10.24295855	    -41.98714275	      4.91125425	    -25.13149837	    -39.32191940	    137.08638615	     73.84085852	    -10.69632003	    -14.15647850	     80.73389325	     50.16737263	    177.73210088	      0.05077654	      0.96090041	    -69.88575408	    -24.67355951
     13.42372881	      6.38557779	      9.95529920	     86.62862040	      0.20150682	      0.81133856	      0.86379801	    -10.92086770	      7.59371117	     11.18285108	     14.26429017	      0.24895883	     38.40266013	      1.86692896	      0.00000000	    -14.53098318	     -4.30187225	      9.75935740	      8.23879360	      0.14379407	     40.47533043	    -13.20633665	      0.00000000	     -1.05035303	      0.48910159	      6.36090974	     -1.95061062	      0.65050512	      6.75846660	     -1.72562500	      1.18920162	      6.75846660	     -1.20044848	      1.18920162	      5.56579602	     -0.97535783	      0.99737597	      5.16823917	     -0.60017172	      0.75761837	      4.77068231	     -7.50256667	      5.53281506	     35.37747171	      0.00000000	      0.00000000	      7.65523315	     10.35403910	    -42.15944791	      4.40942048	    -25.30538043	    -40.16725603	    137.14379606	     74.26444420	    -10.74993498	    -13.61227828	     80.41266751	     50.24093568	    177.78041140	      0.05102132	      0.98372432	    -69.88275852	    -24.67980698
     13.44067797	      6.40715429	      9.81403230	     86.90321711	      0.20151919	      0.81132932	      0.86358666	    -10.61333188	      7.72329921	     11.01782722	     14.36579402	      0.25073041	     38.66302227	      2.03477650	      0.00000000	    -14.28805286	     -4.38594915	      9.80201986	      8.47069424	      0.14784150	     40.57132749	    -12.86580590	      0.00000000	     -1.02267194	      0.49822770	      6.43482485	     -1.89920406	      0.66264284	      6.83700140	     -1.68014773	      1.21139083	      6.83700140	     -1.16881176	      1.21139083	      5.63047174	     -0.94965316	      1.01598593	      5.22829519	     -0.58435475	      0.77175471	      4.82611864	     -7.30484341	      5.63605141	     35.78856536	      0.00000000	      0.00000000	      7.87109021	     10.26533809	    -42.35606843	      3.94456573	    -25.43871849	    -41.09297962	    137.38340917	     75.01898436	    -10.51997507	    -12.01239896	     80.01479342	     50.13454274	    177.70579048	      0.05159048	      1.00023158	    -69.87874998	    -24.68145548
     13.45762712	      6.35931615	      9.82560355	     87.13231586	      0.20176833	      0.81151746	      0.86372334	    -10.49569233	      7.76367818	     10.94080596	     14.43140505	      0.25187553	     38.87438185	      2.20452057	      0.00000000	    -14.26039575	     -4.42109489	      9.47757581	      8.55091942	      0.14924170	     40.59212563	    -12.22828444	      0.00000000	     -1.02360774	      0.50826701	      6.51540378	     -1.90094193	      0.67599512	      6.92261652	     -1.68168516	      1.23580041	      6.92261652	     -1.16988129	      1.23580041	      5.70097831	     -0.95052215	      1.03645809	      5.29376557	     -0.58488946	      0.78730560	      4.88655284	     -7.31152772	      5.74961808	     36.23672121	      0.00000000	      0.00000000	      7.88136113	     10.03010098	    -42.46759159	      3.76700531	    -25.65814207	    -41.95974073	    137.63859492	     75.61744195	     -9.56647832	     -9.87586859	     79.68335829	     49.83720881	    177.54387101	      0.05200762	      1.00105551	    -69.87488168	    -24.67589423
     13.47457627	      6.28195549	      9.86987382	     87.41825835	      0.20237967	      0.81171959	      0.86398331	    -10.46269836	      7.81334557	     10.91472041	     14.46841203	      0.25252143	     38.94120979	      2.16606828	      0.00000000	    -14.27174937	     -4.44765317	      9.50162322	      8.58054802	      0.14975881	     40.53067263	    -12.17648784	      0.00000000	     -1.02652069	      0.51050722	      6.56605703	     -1.90635157	      0.67897460	      6.97643560	     -1.68647084	      1.24124724	      6.97643560	     -1.17321050	      1.24124724	      5.74529990	     -0.95322711	      1.04102631	      5.33492134	     -0.58655392	      0.79077568	      4.92454278	     -7.33233463	      5.77495972	     36.51843940	      0.00000000	      0.00000000	      7.91843225	      9.96775861	    -42.49174605	      3.76793398	    -25.80831613	    -42.05167569	    137.69785849	     75.61595001	     -9.57805629	     -9.81402119	     79.35194464	     49.37499629	    177.49820764	      0.05213382	      0.99408993	    -69.87250194	    -24.66500020
     13.49152542	      6.25881156	      9.89502080	     87.66877901	      0.20213815	      0.81164423	      0.86416910	    -10.30061629	      7.91221291	     11.19927177	     14.83141610	      0.25885704	     39.02039884	      1.60057704	      0.00000000	    -14.22514622	     -4.49280606	      9.12213918	      8.70978151	      0.15201436	     40.66950846	    -11.68109718	      0.00000000	     -1.01148474	      0.54058265	      6.70284683	     -1.87842830	      0.71897492	      7.12177476	     -1.66176827	      1.31437265	      7.12177476	     -1.15602590	      1.31437265	      5.86499098	     -0.93926473	      1.10235614	      5.44606305	     -0.57796238	      0.83736252	      5.02713512	     -7.22493432	      6.11517903	     37.27922321	      0.00000000	      0.00000000	      7.54308263	      9.21651680	    -42.91343221	      2.85712054	    -26.48876999	    -43.15380567	    138.84291033	     75.46699824	    -10.38997068	     -7.24662829	     78.93808641	     49.37796569	    177.02697184	      0.05245389	      0.99539226	    -69.87253651	    -24.66077560
     13.50847458	      6.26143331	     10.10637502	     87.82353325	      0.20235913	      0.81185467	      0.86464955	    -10.42773161	      8.03170073	     11.63922420	     15.00047358	      0.26180765	     38.99025844	      0.92676698	      0.00000000	    -14.44432187	     -4.57097435	      8.67704408	      8.67799090	      0.15145951	     40.70914557	    -11.24160792	      0.00000000	     -1.02742393	      0.56565268	      6.79518139	     -1.90802898	      0.75231806	      7.21988023	     -1.68795478	      1.37532792	      7.21988023	     -1.17424281	      1.37532792	      5.94578371	     -0.95406586	      1.15347894	      5.52108488	     -0.58707003	      0.87619599	      5.09638604	     -7.33878640	      6.39877620	     37.79276033	      0.00000000	      0.00000000	      7.21868128	      8.79137733	    -43.14833788	      2.42460619	    -26.94624525	    -43.52598098	    139.71636511	     75.41491161	    -11.51186685	     -6.18790134	     78.68286527	     49.21712028	    177.08933841	      0.05205088	      0.97402941	    -69.87607792	    -24.65454909
     13.52542373	      6.19549755	     10.36993865	     88.08665928	      0.20212332	      0.81223389	      0.86534871	    -10.53248527	      8.03630734	     11.57252172	     15.24676175	      0.26610619	     38.99427983	      0.67357584	      0.00000000	    -14.65445318	     -4.56435471	      8.64334047	      8.67649838	      0.15143346	     40.67880923	    -11.13349304	      0.00000000	     -1.05413370	      0.58323948	      6.83470297	     -1.95763169	      0.77570851	      7.26187191	     -1.73183626	      1.41808847	      7.26187191	     -1.20476941	      1.41808847	      5.98036510	     -0.97886855	      1.18934194	      5.55319617	     -0.60233200	      0.90343795	      5.12602723	     -7.52957160	      6.59772163	     38.01256752	      0.00000000	      0.00000000	      6.89928429	      8.62194709	    -43.16862214	      2.09742134	    -27.35829483	    -43.70452135	    140.41491648	     75.54238972	    -11.79100944	     -6.18413999	     78.41908239	     49.10067698	    177.28434846	      0.05145417	      0.97900194	    -69.88181610	    -24.65760736
